<svg xmlns="http://www.w3.org/2000/svg" width="700" height="189" viewBox="0 0 700 189" fill="none">
  <g transform="matrix(4.725,0,0,4.725,-33.077,189)">
    <path fill="#e21a1a" d="M35.566,-21.49 C34.706,-21.855 33.793,-22.098 32.838,-22.167 31.444,-25.371 27.647,-29.687 22.914,-29.687 L14.701,-29.687 C16.921,-31.557 19.784,-32.687 22.914,-32.687 29.428,-32.687 34.799,-27.8 35.563,-21.49 Z M37.889,-20.125 L37.91,-20.125 C37.81,-28.321 31.137,-34.936 22.916,-34.936 14.696,-34.936 7.9169,-28.221 7.9169,-19.937 7.9169,-11.653 14.632,-4.9375 22.916,-4.9375 27.824,-4.9375 32.179,-7.2949 34.915,-10.938 L31.946,-10.938 C29.637,-8.6205 26.446,-7.1891 22.916,-7.1891 17.18,-7.1891 12.33,-10.978 10.727,-16.19 L33.415,-16.19 C33.415,-16.815 32.333,-18.439 30.999,-18.439 L10.256,-18.439 C10.198,-18.931 10.166,-19.431 10.166,-19.939 10.166,-21.244 10.364,-22.503 10.727,-23.688 L24.789,-23.688 C24.789,-24.313 23.705,-25.937 22.374,-25.937 L11.663,-25.937 C11.944,-26.461 12.259,-26.961 12.605,-27.438 L22.257,-27.438 C26.374,-27.438 29.182,-24.519 30.428,-22.188 L14.664,-22.188 C13.444,-22.188 12.415,-20.537 12.415,-19.939 L31.634,-19.939 C35.751,-19.939 38.558,-17.024 39.805,-14.69 L23.456,-14.69 C22.122,-14.69 21.04,-13.065 21.04,-12.441 L42.789,-12.441 C42.789,-14.275 40.879,-17.854 37.889,-20.13 Z"/>
  </g>
  <g fill="#002d55" font-family="Arial, sans-serif" font-weight="700" letter-spacing="0">
    <text x="188" y="48" font-size="34">ИНЖИНИРИНГОВЫЙ</text>
    <text x="188" y="82" font-size="34">ЦЕНТР</text>
    <text x="188" y="116" font-size="34">ЖЕЛЕЗНОДОРОЖНОГО</text>
    <text x="188" y="150" font-size="34">ТРАНСПОРТА</text>
  </g>
</svg>
